
<svg xmlns="http://www.w3.org/2000/svg" xmlns:xlink="http://www.w3.org/1999/xlink" width="16px" height="16px" viewBox="0 0 16 16" version="1.1">
<g id="surface1">
<path style=" stroke:none;fill-rule:nonzero;fill:rgb(89.019608%,21.960784%,20%);fill-opacity:1;" d="M 5.351562 4.945312 C 5.351562 4.945312 4.6875 4.285156 4.023438 4.285156 C 3.03125 4.285156 2.367188 4.617188 2.367188 5.277344 C 2.367188 6.824219 2.367188 8.371094 2.367188 9.914062 C 2.367188 11.242188 2.699219 12.234375 4.023438 12.234375 C 4.6875 12.234375 5.351562 11.242188 5.351562 11.242188 Z M 5.351562 4.945312 "/>
<path style=" stroke:none;fill-rule:nonzero;fill:rgb(89.803922%,22.352941%,20.784314%);fill-opacity:1;" d="M 8.992188 11.902344 L 9.324219 13.890625 C 9.324219 13.890625 9.324219 14.554688 10.980469 14.554688 C 11.976562 14.554688 12.304688 13.890625 12.304688 13.890625 L 12.96875 10.578125 Z M 8.992188 11.902344 "/>
<path style=" stroke:none;fill-rule:nonzero;fill:rgb(89.803922%,45.09804%,45.09804%);fill-opacity:1;" d="M 4.355469 8.921875 C 4.359375 7.261719 4.453125 5.597656 4.6875 3.953125 C 5.019531 1.632812 5.679688 0.640625 8.332031 0.640625 C 11.644531 0.640625 12.636719 2.960938 12.96875 6.601562 C 13.121094 8.265625 13.609375 11.050781 12.304688 11.570312 C 10.648438 12.234375 8.992188 12.234375 8.992188 12.234375 L 8.332031 14.222656 C 8.332031 14.222656 8 15.214844 6.675781 15.214844 C 4.6875 15.214844 4.6875 14.222656 4.6875 14.222656 C 4.6875 14.222656 4.351562 10.691406 4.355469 8.921875 Z M 4.355469 8.921875 "/>
<path style=" stroke:none;fill-rule:nonzero;fill:rgb(16.078432%,71.372551%,96.470588%);fill-opacity:1;" d="M 7.007812 5.277344 C 6.914062 3.953125 7.007812 2.628906 9.988281 2.628906 C 11.425781 2.628906 13.632812 2.960938 13.632812 4.945312 C 13.632812 6.933594 11.425781 7.265625 9.988281 7.265625 C 8 7.265625 7.089844 6.46875 7.007812 5.277344 Z M 7.007812 5.277344 "/>
<path style=" stroke:none;fill-rule:nonzero;fill:rgb(50.588238%,83.137256%,98.039216%);fill-opacity:1;" d="M 9.042969 3.371094 C 9.164062 3.53125 9.003906 3.851562 8.6875 4.085938 C 8.375 4.320312 8.019531 4.378906 7.902344 4.214844 C 7.78125 4.054688 7.9375 3.730469 8.253906 3.5 C 8.570312 3.265625 8.921875 3.207031 9.042969 3.371094 Z M 9.042969 3.371094 "/>
<path style=" stroke:none;fill-rule:nonzero;fill:rgb(93.725491%,32.549021%,31.37255%);fill-opacity:1;" d="M 5.019531 2.628906 L 4.964844 2.640625 C 4.847656 3.019531 4.757812 3.453125 4.6875 3.953125 C 4.453125 5.597656 4.359375 7.261719 4.355469 8.921875 C 4.351562 10.691406 4.6875 14.222656 4.6875 14.222656 C 4.6875 14.222656 4.6875 15.214844 6.675781 15.214844 C 8 15.214844 8.332031 14.222656 8.332031 14.222656 L 8.992188 12.234375 C 8.992188 12.234375 10.648438 12.234375 12.304688 11.570312 C 13.210938 11.210938 13.25 9.761719 13.136719 8.355469 C 13.136719 8.355469 12.304688 10.578125 9.324219 10.578125 C 7.667969 10.578125 6.945312 10.75 6.34375 9.914062 C 4.6875 7.265625 5.019531 2.628906 5.019531 2.628906 Z M 5.019531 2.628906 "/>
</g>
</svg>
